<svg width="75" height="23" viewBox="0 0 75 23" fill="none" xmlns="http://www.w3.org/2000/svg">
<path d="M36.308 18.18C35.396 18.18 34.544 18.018 33.752 17.694C32.96 17.358 32.264 16.896 31.664 16.308C31.076 15.708 30.614 15.018 30.278 14.238C29.942 13.458 29.774 12.612 29.774 11.7C29.774 10.788 29.942 9.942 30.278 9.162C30.614 8.382 31.076 7.698 31.664 7.11C32.264 6.51 32.96 6.048 33.752 5.724C34.544 5.388 35.396 5.22 36.308 5.22C36.896 5.22 37.466 5.286 38.018 5.418C38.57 5.55 39.068 5.742 39.512 5.994C39.668 6.078 39.782 6.192 39.854 6.336C39.926 6.468 39.962 6.6 39.962 6.732C39.962 6.984 39.878 7.206 39.71 7.398C39.554 7.578 39.356 7.668 39.116 7.668C39.032 7.668 38.942 7.656 38.846 7.632C38.762 7.608 38.684 7.578 38.612 7.542C38.276 7.374 37.916 7.248 37.532 7.164C37.148 7.068 36.74 7.02 36.308 7.02C35.444 7.02 34.664 7.23 33.968 7.65C33.272 8.058 32.72 8.616 32.312 9.324C31.916 10.032 31.718 10.824 31.718 11.7C31.718 12.564 31.916 13.356 32.312 14.076C32.72 14.784 33.272 15.348 33.968 15.768C34.664 16.176 35.444 16.38 36.308 16.38C36.728 16.38 37.172 16.332 37.64 16.236C38.108 16.128 38.504 15.99 38.828 15.822L38.684 16.308V12.888L38.972 13.14H36.614C36.35 13.14 36.128 13.056 35.948 12.888C35.78 12.72 35.696 12.504 35.696 12.24C35.696 11.976 35.78 11.76 35.948 11.592C36.128 11.424 36.35 11.34 36.614 11.34H39.728C39.98 11.34 40.19 11.43 40.358 11.61C40.538 11.778 40.628 11.994 40.628 12.258V16.254C40.628 16.446 40.58 16.608 40.484 16.74C40.388 16.872 40.28 16.98 40.16 17.064C39.62 17.4 39.02 17.67 38.36 17.874C37.712 18.078 37.028 18.18 36.308 18.18ZM44.7372 17.082C44.7372 17.346 44.6472 17.568 44.4672 17.748C44.2992 17.916 44.0892 18 43.8372 18C43.5852 18 43.3692 17.916 43.1892 17.748C43.0212 17.568 42.9372 17.346 42.9372 17.082V5.598C42.9372 5.334 43.0272 5.118 43.2072 4.95C43.3872 4.77 43.6032 4.68 43.8552 4.68C44.1192 4.68 44.3292 4.77 44.4852 4.95C44.6532 5.118 44.7372 5.334 44.7372 5.598V17.082ZM55.1743 8.388C55.4383 8.388 55.6543 8.478 55.8223 8.658C55.9902 8.826 56.0742 9.042 56.0742 9.306V17.082C56.0742 17.346 55.9902 17.568 55.8223 17.748C55.6543 17.916 55.4383 18 55.1743 18C54.9223 18 54.7063 17.916 54.5263 17.748C54.3583 17.568 54.2743 17.346 54.2743 17.082V15.786L54.6523 15.84C54.6523 16.056 54.5623 16.296 54.3823 16.56C54.2143 16.824 53.9803 17.082 53.6803 17.334C53.3803 17.574 53.0263 17.778 52.6183 17.946C52.2103 18.102 51.7723 18.18 51.3043 18.18C50.4763 18.18 49.7323 17.97 49.0723 17.55C48.4123 17.118 47.8903 16.53 47.5063 15.786C47.1223 15.042 46.9303 14.196 46.9303 13.248C46.9303 12.276 47.1223 11.424 47.5063 10.692C47.8903 9.948 48.4063 9.366 49.0543 8.946C49.7143 8.526 50.4463 8.316 51.2503 8.316C51.7663 8.316 52.2403 8.4 52.6723 8.568C53.1163 8.736 53.5003 8.952 53.8243 9.216C54.1483 9.48 54.3943 9.762 54.5623 10.062C54.7423 10.35 54.8323 10.626 54.8323 10.89L54.2743 10.944V9.306C54.2743 9.054 54.3583 8.838 54.5263 8.658C54.7063 8.478 54.9223 8.388 55.1743 8.388ZM51.5023 16.524C52.0663 16.524 52.5643 16.38 52.9963 16.092C53.4283 15.804 53.7643 15.414 54.0043 14.922C54.2443 14.418 54.3643 13.86 54.3643 13.248C54.3643 12.624 54.2443 12.066 54.0043 11.574C53.7643 11.082 53.4283 10.692 52.9963 10.404C52.5643 10.116 52.0663 9.972 51.5023 9.972C50.9503 9.972 50.4583 10.116 50.0263 10.404C49.6063 10.692 49.2703 11.082 49.0183 11.574C48.7783 12.066 48.6583 12.624 48.6583 13.248C48.6583 13.86 48.7783 14.418 49.0183 14.922C49.2703 15.414 49.6063 15.804 50.0263 16.092C50.4583 16.38 50.9503 16.524 51.5023 16.524ZM58.0379 16.524C57.9299 16.356 57.8819 16.164 57.8939 15.948C57.9059 15.72 58.0319 15.528 58.2719 15.372C58.4399 15.264 58.6139 15.222 58.7939 15.246C58.9859 15.258 59.1659 15.348 59.3339 15.516C59.6699 15.888 60.0419 16.182 60.4499 16.398C60.8699 16.614 61.3739 16.722 61.9619 16.722C62.2019 16.71 62.4479 16.674 62.6999 16.614C62.9519 16.542 63.1679 16.422 63.3479 16.254C63.5279 16.074 63.6179 15.816 63.6179 15.48C63.6179 15.18 63.5219 14.94 63.3299 14.76C63.1379 14.58 62.8859 14.436 62.5739 14.328C62.2619 14.208 61.9259 14.1 61.5659 14.004C61.1819 13.896 60.7919 13.776 60.3959 13.644C60.0119 13.512 59.6639 13.344 59.3519 13.14C59.0399 12.924 58.7819 12.648 58.5779 12.312C58.3859 11.976 58.2899 11.562 58.2899 11.07C58.2899 10.506 58.4459 10.02 58.7579 9.612C59.0819 9.204 59.4959 8.886 59.9999 8.658C60.5159 8.43 61.0739 8.316 61.6739 8.316C62.0219 8.316 62.3879 8.364 62.7719 8.46C63.1559 8.544 63.5279 8.682 63.8879 8.874C64.2479 9.066 64.5599 9.318 64.8239 9.63C64.9439 9.786 65.0099 9.972 65.0219 10.188C65.0459 10.404 64.9499 10.596 64.7339 10.764C64.5899 10.884 64.4159 10.938 64.2119 10.926C64.0079 10.914 63.8399 10.848 63.7079 10.728C63.4799 10.44 63.1859 10.218 62.8259 10.062C62.4659 9.894 62.0579 9.81 61.6019 9.81C61.3739 9.81 61.1339 9.846 60.8819 9.918C60.6419 9.978 60.4379 10.092 60.2699 10.26C60.1019 10.428 60.0179 10.674 60.0179 10.998C60.0179 11.298 60.1139 11.538 60.3059 11.718C60.5099 11.898 60.7739 12.048 61.0979 12.168C61.4219 12.288 61.7759 12.396 62.1599 12.492C62.5319 12.588 62.8979 12.702 63.2579 12.834C63.6299 12.966 63.9599 13.14 64.2479 13.356C64.5479 13.56 64.7879 13.83 64.9679 14.166C65.1599 14.49 65.2559 14.904 65.2559 15.408C65.2559 15.996 65.0819 16.5 64.7339 16.92C64.3979 17.328 63.9659 17.64 63.4379 17.856C62.9219 18.072 62.3759 18.18 61.7999 18.18C61.1159 18.18 60.4319 18.06 59.7479 17.82C59.0759 17.568 58.5059 17.136 58.0379 16.524ZM66.6336 16.524C66.5256 16.356 66.4776 16.164 66.4896 15.948C66.5016 15.72 66.6276 15.528 66.8676 15.372C67.0356 15.264 67.2096 15.222 67.3896 15.246C67.5816 15.258 67.7616 15.348 67.9296 15.516C68.2656 15.888 68.6376 16.182 69.0456 16.398C69.4656 16.614 69.9696 16.722 70.5576 16.722C70.7976 16.71 71.0436 16.674 71.2956 16.614C71.5476 16.542 71.7636 16.422 71.9436 16.254C72.1236 16.074 72.2136 15.816 72.2136 15.48C72.2136 15.18 72.1176 14.94 71.9256 14.76C71.7336 14.58 71.4816 14.436 71.1696 14.328C70.8576 14.208 70.5216 14.1 70.1616 14.004C69.7776 13.896 69.3876 13.776 68.9916 13.644C68.6076 13.512 68.2596 13.344 67.9476 13.14C67.6356 12.924 67.3776 12.648 67.1736 12.312C66.9816 11.976 66.8856 11.562 66.8856 11.07C66.8856 10.506 67.0416 10.02 67.3536 9.612C67.6776 9.204 68.0916 8.886 68.5956 8.658C69.1116 8.43 69.6696 8.316 70.2696 8.316C70.6176 8.316 70.9836 8.364 71.3676 8.46C71.7516 8.544 72.1236 8.682 72.4836 8.874C72.8436 9.066 73.1556 9.318 73.4196 9.63C73.5396 9.786 73.6056 9.972 73.6176 10.188C73.6416 10.404 73.5456 10.596 73.3296 10.764C73.1856 10.884 73.0116 10.938 72.8076 10.926C72.6036 10.914 72.4356 10.848 72.3036 10.728C72.0756 10.44 71.7816 10.218 71.4216 10.062C71.0616 9.894 70.6536 9.81 70.1976 9.81C69.9696 9.81 69.7296 9.846 69.4776 9.918C69.2376 9.978 69.0336 10.092 68.8656 10.26C68.6976 10.428 68.6136 10.674 68.6136 10.998C68.6136 11.298 68.7096 11.538 68.9016 11.718C69.1056 11.898 69.3696 12.048 69.6936 12.168C70.0176 12.288 70.3716 12.396 70.7556 12.492C71.1276 12.588 71.4936 12.702 71.8536 12.834C72.2256 12.966 72.5556 13.14 72.8436 13.356C73.1436 13.56 73.3836 13.83 73.5636 14.166C73.7556 14.49 73.8516 14.904 73.8516 15.408C73.8516 15.996 73.6776 16.5 73.3296 16.92C72.9936 17.328 72.5616 17.64 72.0336 17.856C71.5176 18.072 70.9716 18.18 70.3956 18.18C69.7116 18.18 69.0276 18.06 68.3436 17.82C67.6716 17.568 67.1016 17.136 66.6336 16.524Z" fill="white"/>
<rect y="4" width="19" height="18" rx="1" fill="#899DF2"/>
<rect x="2" y="2" width="19" height="18" rx="1" fill="#4A6CF7"/>
<rect x="8" y="4" width="11" height="10" rx="1" fill="url(#paint0_linear_4_220)"/>
<defs>
<linearGradient id="paint0_linear_4_220" x1="22" y1="4" x2="8" y2="14" gradientUnits="userSpaceOnUse">
<stop stop-color="#647EEA"/>
<stop offset="0.59" stop-color="#4A6CF7"/>
<stop offset="1" stop-color="#4A6CF7"/>
</linearGradient>
</defs>
</svg>
