<svg width="92" height="20" viewBox="0 0 92 20" fill="none" xmlns="http://www.w3.org/2000/svg">
<path d="M29.436 14.12C28.42 14.12 27.552 13.948 26.832 13.604C26.112 13.252 25.56 12.752 25.176 12.104C24.792 11.456 24.6 10.684 24.6 9.788C24.6 9.084 24.72 8.464 24.96 7.928C25.2 7.392 25.532 6.944 25.956 6.584C26.388 6.216 26.888 5.94 27.456 5.756C28.024 5.572 28.632 5.48 29.28 5.48C29.656 5.48 30.036 5.516 30.42 5.588C30.804 5.66 31.18 5.764 31.548 5.9L31.932 6.056L31.656 7.268L31.2 7.172C30.864 7.1 30.536 7.044 30.216 7.004C29.904 6.956 29.608 6.932 29.328 6.932C28.72 6.932 28.18 7.036 27.708 7.244C27.244 7.452 26.876 7.768 26.604 8.192C26.34 8.608 26.208 9.144 26.208 9.8C26.208 10.448 26.336 10.992 26.592 11.432C26.848 11.864 27.22 12.192 27.708 12.416C28.196 12.632 28.784 12.74 29.472 12.74C29.704 12.74 29.948 12.724 30.204 12.692C30.46 12.66 30.716 12.612 30.972 12.548V10.628H28.692V9.248H32.544V13.352C32.264 13.496 31.952 13.628 31.608 13.748C31.264 13.86 30.908 13.948 30.54 14.012C30.172 14.084 29.804 14.12 29.436 14.12ZM35.7664 14.096C35.1424 14.096 34.6944 13.952 34.4224 13.664C34.1504 13.376 34.0144 13 34.0144 12.536V5.144L35.5264 4.76V12.2C35.5264 12.384 35.5784 12.528 35.6824 12.632C35.7944 12.728 35.9784 12.776 36.2344 12.776C36.2984 12.776 36.3704 12.776 36.4504 12.776C36.5304 12.768 36.6104 12.76 36.6904 12.752L36.6544 13.916C36.5104 13.972 36.3584 14.016 36.1984 14.048C36.0464 14.08 35.9024 14.096 35.7664 14.096ZM39.2661 14.096C38.9381 14.096 38.6261 14.036 38.3301 13.916C38.0341 13.788 37.7941 13.596 37.6101 13.34C37.4261 13.084 37.3341 12.764 37.3341 12.38C37.3341 11.868 37.4981 11.464 37.8261 11.168C38.1541 10.864 38.6181 10.652 39.2181 10.532L41.0541 10.148V10.124C41.0541 9.772 40.9461 9.516 40.7301 9.356C40.5141 9.196 40.1821 9.116 39.7341 9.116C39.4781 9.116 39.2141 9.132 38.9421 9.164C38.6781 9.196 38.4301 9.236 38.1981 9.284L37.9221 9.344L37.6701 8.348L37.9701 8.24C38.3701 8.096 38.7421 7.988 39.0861 7.916C39.4381 7.844 39.7861 7.808 40.1301 7.808C40.8501 7.808 41.4341 8 41.8821 8.384C42.3301 8.768 42.5541 9.348 42.5541 10.124V12.356C42.5541 12.604 42.6101 12.772 42.7221 12.86C42.8421 12.94 43.0861 12.996 43.4541 13.028L43.3701 14.024C43.2661 14.048 43.1661 14.064 43.0701 14.072C42.9741 14.088 42.8901 14.096 42.8181 14.096C42.4021 14.096 42.0701 14.004 41.8221 13.82C41.5821 13.628 41.4021 13.396 41.2821 13.124L41.0061 13.376C40.7421 13.616 40.4541 13.796 40.1421 13.916C39.8381 14.036 39.5461 14.096 39.2661 14.096ZM39.7221 12.836C39.8821 12.836 40.0541 12.804 40.2381 12.74C40.4221 12.676 40.6061 12.58 40.7901 12.452L41.0541 12.272V11.036L39.4341 11.492C39.2021 11.556 39.0381 11.648 38.9421 11.768C38.8461 11.888 38.7981 12.028 38.7981 12.188C38.7981 12.396 38.8781 12.556 39.0381 12.668C39.1981 12.78 39.4261 12.836 39.7221 12.836ZM46.3543 14.096C46.0423 14.096 45.7223 14.064 45.3943 14C45.0743 13.936 44.7503 13.848 44.4223 13.736L44.0263 13.604L44.2783 12.524L44.6143 12.584C44.8943 12.632 45.1703 12.668 45.4423 12.692C45.7143 12.716 45.9783 12.728 46.2343 12.728C46.5623 12.728 46.8063 12.692 46.9663 12.62C47.1343 12.54 47.2183 12.416 47.2183 12.248C47.2183 12.144 47.1943 12.056 47.1463 11.984C47.1063 11.912 47.0103 11.84 46.8583 11.768C46.7143 11.696 46.4783 11.616 46.1503 11.528C45.6223 11.384 45.2063 11.232 44.9023 11.072C44.6063 10.904 44.3943 10.704 44.2663 10.472C44.1463 10.24 44.0863 9.952 44.0863 9.608C44.0943 9.192 44.2023 8.852 44.4103 8.588C44.6183 8.324 44.9023 8.128 45.2623 8C45.6223 7.872 46.0303 7.808 46.4863 7.808C46.7903 7.808 47.1023 7.836 47.4223 7.892C47.7423 7.94 48.0423 8.008 48.3223 8.096L48.5623 8.18L48.3583 9.248L48.1543 9.224C47.8663 9.184 47.6103 9.16 47.3863 9.152C47.1703 9.136 46.9743 9.128 46.7983 9.128C46.4063 9.128 46.0983 9.164 45.8743 9.236C45.6583 9.3 45.5503 9.404 45.5503 9.548C45.5503 9.652 45.5783 9.736 45.6343 9.8C45.6983 9.856 45.8263 9.916 46.0183 9.98C46.2103 10.044 46.5023 10.128 46.8943 10.232C47.3903 10.36 47.7703 10.504 48.0343 10.664C48.3063 10.824 48.4943 11.016 48.5983 11.24C48.7023 11.464 48.7543 11.736 48.7543 12.056C48.7543 12.536 48.6423 12.928 48.4183 13.232C48.2023 13.528 47.9103 13.748 47.5423 13.892C47.1823 14.028 46.7863 14.096 46.3543 14.096ZM51.8856 14.096C51.5736 14.096 51.2536 14.064 50.9256 14C50.6056 13.936 50.2816 13.848 49.9536 13.736L49.5576 13.604L49.8096 12.524L50.1456 12.584C50.4256 12.632 50.7016 12.668 50.9736 12.692C51.2456 12.716 51.5096 12.728 51.7656 12.728C52.0936 12.728 52.3376 12.692 52.4976 12.62C52.6656 12.54 52.7496 12.416 52.7496 12.248C52.7496 12.144 52.7256 12.056 52.6776 11.984C52.6376 11.912 52.5416 11.84 52.3896 11.768C52.2456 11.696 52.0096 11.616 51.6816 11.528C51.1536 11.384 50.7376 11.232 50.4336 11.072C50.1376 10.904 49.9256 10.704 49.7976 10.472C49.6776 10.24 49.6176 9.952 49.6176 9.608C49.6256 9.192 49.7336 8.852 49.9416 8.588C50.1496 8.324 50.4336 8.128 50.7936 8C51.1536 7.872 51.5616 7.808 52.0176 7.808C52.3216 7.808 52.6336 7.836 52.9536 7.892C53.2736 7.94 53.5736 8.008 53.8536 8.096L54.0936 8.18L53.8896 9.248L53.6856 9.224C53.3976 9.184 53.1416 9.16 52.9176 9.152C52.7016 9.136 52.5056 9.128 52.3296 9.128C51.9376 9.128 51.6296 9.164 51.4056 9.236C51.1896 9.3 51.0816 9.404 51.0816 9.548C51.0816 9.652 51.1096 9.736 51.1656 9.8C51.2296 9.856 51.3576 9.916 51.5496 9.98C51.7416 10.044 52.0336 10.128 52.4256 10.232C52.9216 10.36 53.3016 10.504 53.5656 10.664C53.8376 10.824 54.0256 11.016 54.1296 11.24C54.2336 11.464 54.2856 11.736 54.2856 12.056C54.2856 12.536 54.1736 12.928 53.9496 13.232C53.7336 13.528 53.4416 13.748 53.0736 13.892C52.7136 14.028 52.3176 14.096 51.8856 14.096ZM59.1093 14V5.6H60.6813V12.62H65.1093V14H59.1093ZM68.78 14.096C68.156 14.096 67.612 13.964 67.148 13.7C66.692 13.428 66.336 13.056 66.08 12.584C65.832 12.112 65.708 11.568 65.708 10.952C65.708 10.328 65.836 9.78 66.092 9.308C66.356 8.836 66.72 8.468 67.184 8.204C67.648 7.94 68.188 7.808 68.804 7.808C69.428 7.808 69.968 7.944 70.424 8.216C70.88 8.48 71.232 8.848 71.48 9.32C71.728 9.792 71.852 10.336 71.852 10.952C71.852 11.568 71.724 12.116 71.468 12.596C71.212 13.068 70.852 13.436 70.388 13.7C69.932 13.964 69.396 14.096 68.78 14.096ZM68.792 12.788C69.104 12.788 69.372 12.716 69.596 12.572C69.82 12.428 69.992 12.22 70.112 11.948C70.24 11.668 70.304 11.336 70.304 10.952C70.304 10.56 70.244 10.228 70.124 9.956C70.004 9.684 69.828 9.476 69.596 9.332C69.372 9.188 69.104 9.116 68.792 9.116C68.48 9.116 68.208 9.188 67.976 9.332C67.744 9.476 67.564 9.684 67.436 9.956C67.308 10.228 67.244 10.56 67.244 10.952C67.244 11.336 67.308 11.668 67.436 11.948C67.564 12.22 67.744 12.428 67.976 12.572C68.208 12.716 68.48 12.788 68.792 12.788ZM74.5043 14.096C74.1763 14.096 73.8643 14.036 73.5683 13.916C73.2723 13.788 73.0323 13.596 72.8483 13.34C72.6643 13.084 72.5723 12.764 72.5723 12.38C72.5723 11.868 72.7363 11.464 73.0643 11.168C73.3923 10.864 73.8563 10.652 74.4563 10.532L76.2923 10.148V10.124C76.2923 9.772 76.1843 9.516 75.9683 9.356C75.7523 9.196 75.4203 9.116 74.9723 9.116C74.7163 9.116 74.4523 9.132 74.1803 9.164C73.9163 9.196 73.6683 9.236 73.4363 9.284L73.1603 9.344L72.9083 8.348L73.2083 8.24C73.6083 8.096 73.9803 7.988 74.3243 7.916C74.6763 7.844 75.0243 7.808 75.3683 7.808C76.0883 7.808 76.6723 8 77.1203 8.384C77.5683 8.768 77.7923 9.348 77.7923 10.124V12.356C77.7923 12.604 77.8483 12.772 77.9603 12.86C78.0803 12.94 78.3243 12.996 78.6923 13.028L78.6083 14.024C78.5043 14.048 78.4043 14.064 78.3083 14.072C78.2123 14.088 78.1283 14.096 78.0563 14.096C77.6403 14.096 77.3083 14.004 77.0603 13.82C76.8203 13.628 76.6403 13.396 76.5203 13.124L76.2443 13.376C75.9803 13.616 75.6923 13.796 75.3803 13.916C75.0763 14.036 74.7843 14.096 74.5043 14.096ZM74.9603 12.836C75.1203 12.836 75.2923 12.804 75.4763 12.74C75.6603 12.676 75.8443 12.58 76.0283 12.452L76.2923 12.272V11.036L74.6723 11.492C74.4403 11.556 74.2763 11.648 74.1803 11.768C74.0843 11.888 74.0363 12.028 74.0363 12.188C74.0363 12.396 74.1163 12.556 74.2763 12.668C74.4363 12.78 74.6643 12.836 74.9603 12.836ZM79.6486 14V7.904H80.8006L80.9086 8.528L81.3046 8.312C81.6006 8.152 81.8966 8.028 82.1926 7.94C82.4886 7.852 82.7806 7.808 83.0686 7.808C83.5566 7.808 83.9526 7.9 84.2566 8.084C84.5606 8.268 84.7846 8.516 84.9286 8.828C85.0806 9.14 85.1566 9.492 85.1566 9.884V14H83.6446V10.256C83.6446 9.904 83.5566 9.636 83.3806 9.452C83.2046 9.268 82.9166 9.176 82.5166 9.176C82.3486 9.176 82.1846 9.2 82.0246 9.248C81.8726 9.288 81.7126 9.348 81.5446 9.428L81.1606 9.596V14H79.6486ZM88.6942 14.096C88.3822 14.096 88.0622 14.064 87.7342 14C87.4142 13.936 87.0902 13.848 86.7622 13.736L86.3662 13.604L86.6182 12.524L86.9542 12.584C87.2342 12.632 87.5102 12.668 87.7822 12.692C88.0542 12.716 88.3182 12.728 88.5742 12.728C88.9022 12.728 89.1462 12.692 89.3062 12.62C89.4742 12.54 89.5582 12.416 89.5582 12.248C89.5582 12.144 89.5342 12.056 89.4862 11.984C89.4462 11.912 89.3502 11.84 89.1982 11.768C89.0542 11.696 88.8182 11.616 88.4902 11.528C87.9622 11.384 87.5462 11.232 87.2422 11.072C86.9462 10.904 86.7342 10.704 86.6062 10.472C86.4862 10.24 86.4262 9.952 86.4262 9.608C86.4342 9.192 86.5422 8.852 86.7502 8.588C86.9582 8.324 87.2422 8.128 87.6022 8C87.9622 7.872 88.3702 7.808 88.8262 7.808C89.1302 7.808 89.4422 7.836 89.7622 7.892C90.0822 7.94 90.3822 8.008 90.6622 8.096L90.9022 8.18L90.6982 9.248L90.4942 9.224C90.2062 9.184 89.9502 9.16 89.7262 9.152C89.5102 9.136 89.3142 9.128 89.1382 9.128C88.7462 9.128 88.4382 9.164 88.2142 9.236C87.9982 9.3 87.8902 9.404 87.8902 9.548C87.8902 9.652 87.9182 9.736 87.9742 9.8C88.0382 9.856 88.1662 9.916 88.3582 9.98C88.5502 10.044 88.8422 10.128 89.2342 10.232C89.7302 10.36 90.1102 10.504 90.3742 10.664C90.6462 10.824 90.8342 11.016 90.9382 11.24C91.0422 11.464 91.0942 11.736 91.0942 12.056C91.0942 12.536 90.9822 12.928 90.7582 13.232C90.5422 13.528 90.2502 13.748 89.8822 13.892C89.5222 14.028 89.1262 14.096 88.6942 14.096Z" fill="white"/>
<rect y="2" width="19" height="18" rx="1" fill="#899DF2"/>
<rect x="2" width="19" height="18" rx="1" fill="#4A6CF7"/>
<rect x="8" y="2" width="11" height="10" rx="1" fill="url(#paint0_linear_4_70)"/>
<defs>
<linearGradient id="paint0_linear_4_70" x1="22" y1="2" x2="8" y2="12" gradientUnits="userSpaceOnUse">
<stop stop-color="#647EEA"/>
<stop offset="0.59" stop-color="#4A6CF7"/>
<stop offset="1" stop-color="#4A6CF7"/>
</linearGradient>
</defs>
</svg>
