<svg width="76" height="23" viewBox="0 0 76 23" fill="none" xmlns="http://www.w3.org/2000/svg">
<path d="M36.29 18.18C35.378 18.18 34.526 18.012 33.734 17.676C32.942 17.34 32.246 16.878 31.646 16.29C31.046 15.69 30.572 15 30.224 14.22C29.888 13.44 29.72 12.6 29.72 11.7C29.72 10.8 29.888 9.96 30.224 9.18C30.572 8.4 31.046 7.716 31.646 7.128C32.246 6.528 32.942 6.06 33.734 5.724C34.526 5.388 35.378 5.22 36.29 5.22C36.854 5.22 37.4 5.28 37.928 5.4C38.456 5.52 38.942 5.7 39.386 5.94C39.566 6.036 39.698 6.168 39.782 6.336C39.878 6.492 39.926 6.654 39.926 6.822C39.926 7.11 39.83 7.368 39.638 7.596C39.446 7.824 39.2 7.938 38.9 7.938C38.804 7.938 38.702 7.926 38.594 7.902C38.498 7.878 38.402 7.842 38.306 7.794C38.006 7.662 37.688 7.56 37.352 7.488C37.016 7.416 36.662 7.38 36.29 7.38C35.51 7.38 34.796 7.578 34.148 7.974C33.512 8.358 33.002 8.88 32.618 9.54C32.246 10.188 32.06 10.908 32.06 11.7C32.06 12.48 32.246 13.2 32.618 13.86C33.002 14.52 33.512 15.048 34.148 15.444C34.796 15.828 35.51 16.02 36.29 16.02C36.65 16.02 37.046 15.984 37.478 15.912C37.91 15.84 38.264 15.744 38.54 15.624L38.378 16.164V13.086L38.684 13.356H36.686C36.374 13.356 36.11 13.254 35.894 13.05C35.69 12.846 35.588 12.588 35.588 12.276C35.588 11.964 35.69 11.706 35.894 11.502C36.11 11.298 36.374 11.196 36.686 11.196H39.638C39.95 11.196 40.208 11.304 40.412 11.52C40.616 11.724 40.718 11.982 40.718 12.294V16.11C40.718 16.35 40.658 16.548 40.538 16.704C40.43 16.86 40.304 16.986 40.16 17.082C39.608 17.418 39.002 17.688 38.342 17.892C37.694 18.084 37.01 18.18 36.29 18.18ZM45.0432 16.902C45.0432 17.214 44.9352 17.478 44.7192 17.694C44.5152 17.898 44.2572 18 43.9452 18C43.6452 18 43.3932 17.898 43.1892 17.694C42.9852 17.478 42.8832 17.214 42.8832 16.902V5.778C42.8832 5.466 42.9852 5.208 43.1892 5.004C43.4052 4.788 43.6692 4.68 43.9812 4.68C44.2932 4.68 44.5452 4.788 44.7372 5.004C44.9412 5.208 45.0432 5.466 45.0432 5.778V16.902ZM55.4388 8.19C55.7508 8.19 56.0088 8.292 56.2128 8.496C56.4168 8.7 56.5188 8.964 56.5188 9.288V16.902C56.5188 17.214 56.4168 17.478 56.2128 17.694C56.0088 17.898 55.7508 18 55.4388 18C55.1268 18 54.8688 17.898 54.6648 17.694C54.4608 17.478 54.3588 17.214 54.3588 16.902V16.02L54.7548 16.182C54.7548 16.338 54.6708 16.53 54.5028 16.758C54.3348 16.974 54.1068 17.19 53.8188 17.406C53.5308 17.622 53.1888 17.808 52.7928 17.964C52.4088 18.108 51.9888 18.18 51.5328 18.18C50.7048 18.18 49.9548 17.97 49.2828 17.55C48.6108 17.118 48.0768 16.53 47.6808 15.786C47.2968 15.03 47.1048 14.166 47.1048 13.194C47.1048 12.21 47.2968 11.346 47.6808 10.602C48.0768 9.846 48.6048 9.258 49.2648 8.838C49.9248 8.406 50.6568 8.19 51.4608 8.19C51.9768 8.19 52.4508 8.268 52.8828 8.424C53.3148 8.58 53.6868 8.778 53.9988 9.018C54.3228 9.258 54.5688 9.504 54.7368 9.756C54.9168 9.996 55.0068 10.2 55.0068 10.368L54.3588 10.602V9.288C54.3588 8.976 54.4608 8.718 54.6648 8.514C54.8688 8.298 55.1268 8.19 55.4388 8.19ZM51.8028 16.2C52.3308 16.2 52.7928 16.068 53.1888 15.804C53.5848 15.54 53.8908 15.18 54.1068 14.724C54.3348 14.268 54.4488 13.758 54.4488 13.194C54.4488 12.618 54.3348 12.102 54.1068 11.646C53.8908 11.19 53.5848 10.83 53.1888 10.566C52.7928 10.302 52.3308 10.17 51.8028 10.17C51.2868 10.17 50.8308 10.302 50.4348 10.566C50.0388 10.83 49.7268 11.19 49.4988 11.646C49.2828 12.102 49.1748 12.618 49.1748 13.194C49.1748 13.758 49.2828 14.268 49.4988 14.724C49.7268 15.18 50.0388 15.54 50.4348 15.804C50.8308 16.068 51.2868 16.2 51.8028 16.2ZM58.2995 16.506C58.1795 16.338 58.1255 16.122 58.1375 15.858C58.1495 15.594 58.3055 15.366 58.6055 15.174C58.7975 15.054 59.0015 15.006 59.2175 15.03C59.4335 15.042 59.6435 15.15 59.8475 15.354C60.1955 15.702 60.5615 15.972 60.9455 16.164C61.3295 16.356 61.8095 16.452 62.3855 16.452C62.5655 16.44 62.7635 16.416 62.9795 16.38C63.1955 16.332 63.3815 16.236 63.5375 16.092C63.7055 15.936 63.7895 15.702 63.7895 15.39C63.7895 15.126 63.6995 14.916 63.5195 14.76C63.3395 14.604 63.0995 14.472 62.7995 14.364C62.5115 14.256 62.1875 14.154 61.8275 14.058C61.4555 13.95 61.0715 13.83 60.6755 13.698C60.2915 13.566 59.9375 13.398 59.6135 13.194C59.2895 12.978 59.0255 12.696 58.8215 12.348C58.6175 12 58.5155 11.562 58.5155 11.034C58.5155 10.434 58.6835 9.924 59.0195 9.504C59.3555 9.084 59.7875 8.76 60.3155 8.532C60.8555 8.304 61.4195 8.19 62.0075 8.19C62.3795 8.19 62.7695 8.238 63.1775 8.334C63.5855 8.418 63.9755 8.562 64.3475 8.766C64.7195 8.958 65.0315 9.216 65.2835 9.54C65.4155 9.72 65.4935 9.936 65.5175 10.188C65.5415 10.44 65.4275 10.668 65.1755 10.872C64.9955 11.016 64.7855 11.082 64.5455 11.07C64.3055 11.046 64.1075 10.962 63.9515 10.818C63.7475 10.554 63.4715 10.344 63.1235 10.188C62.7875 10.032 62.3975 9.954 61.9535 9.954C61.7735 9.954 61.5755 9.978 61.3595 10.026C61.1555 10.062 60.9755 10.152 60.8195 10.296C60.6635 10.428 60.5855 10.644 60.5855 10.944C60.5855 11.22 60.6755 11.442 60.8555 11.61C61.0355 11.766 61.2755 11.898 61.5755 12.006C61.8875 12.102 62.2175 12.198 62.5655 12.294C62.9255 12.39 63.2915 12.504 63.6635 12.636C64.0355 12.768 64.3775 12.942 64.6895 13.158C65.0015 13.374 65.2535 13.656 65.4455 14.004C65.6375 14.34 65.7335 14.772 65.7335 15.3C65.7335 15.912 65.5535 16.434 65.1935 16.866C64.8335 17.298 64.3835 17.628 63.8435 17.856C63.3035 18.072 62.7515 18.18 62.1875 18.18C61.4795 18.18 60.7715 18.06 60.0635 17.82C59.3555 17.568 58.7675 17.13 58.2995 16.506ZM66.9831 16.506C66.8631 16.338 66.8091 16.122 66.8211 15.858C66.8331 15.594 66.9891 15.366 67.2891 15.174C67.4811 15.054 67.6851 15.006 67.9011 15.03C68.1171 15.042 68.3271 15.15 68.5311 15.354C68.8791 15.702 69.2451 15.972 69.6291 16.164C70.0131 16.356 70.4931 16.452 71.0691 16.452C71.2491 16.44 71.4471 16.416 71.6631 16.38C71.8791 16.332 72.0651 16.236 72.2211 16.092C72.3891 15.936 72.4731 15.702 72.4731 15.39C72.4731 15.126 72.3831 14.916 72.2031 14.76C72.0231 14.604 71.7831 14.472 71.4831 14.364C71.1951 14.256 70.8711 14.154 70.5111 14.058C70.1391 13.95 69.7551 13.83 69.3591 13.698C68.9751 13.566 68.6211 13.398 68.2971 13.194C67.9731 12.978 67.7091 12.696 67.5051 12.348C67.3011 12 67.1991 11.562 67.1991 11.034C67.1991 10.434 67.3671 9.924 67.7031 9.504C68.0391 9.084 68.4711 8.76 68.9991 8.532C69.5391 8.304 70.1031 8.19 70.6911 8.19C71.0631 8.19 71.4531 8.238 71.8611 8.334C72.2691 8.418 72.6591 8.562 73.0311 8.766C73.4031 8.958 73.7151 9.216 73.9671 9.54C74.0991 9.72 74.1771 9.936 74.2011 10.188C74.2251 10.44 74.1111 10.668 73.8591 10.872C73.6791 11.016 73.4691 11.082 73.2291 11.07C72.9891 11.046 72.7911 10.962 72.6351 10.818C72.4311 10.554 72.1551 10.344 71.8071 10.188C71.4711 10.032 71.0811 9.954 70.6371 9.954C70.4571 9.954 70.2591 9.978 70.0431 10.026C69.8391 10.062 69.6591 10.152 69.5031 10.296C69.3471 10.428 69.2691 10.644 69.2691 10.944C69.2691 11.22 69.3591 11.442 69.5391 11.61C69.7191 11.766 69.9591 11.898 70.2591 12.006C70.5711 12.102 70.9011 12.198 71.2491 12.294C71.6091 12.39 71.9751 12.504 72.3471 12.636C72.7191 12.768 73.0611 12.942 73.3731 13.158C73.6851 13.374 73.9371 13.656 74.1291 14.004C74.3211 14.34 74.4171 14.772 74.4171 15.3C74.4171 15.912 74.2371 16.434 73.8771 16.866C73.5171 17.298 73.0671 17.628 72.5271 17.856C71.9871 18.072 71.4351 18.18 70.8711 18.18C70.1631 18.18 69.4551 18.06 68.7471 17.82C68.0391 17.568 67.4511 17.13 66.9831 16.506Z" fill="white"/>
<rect y="4" width="19" height="18" rx="1" fill="#899DF2"/>
<rect x="2" y="2" width="19" height="18" rx="1" fill="#4A6CF7"/>
<rect x="8" y="4" width="11" height="10" rx="1" fill="url(#paint0_linear_4_227)"/>
<defs>
<linearGradient id="paint0_linear_4_227" x1="22" y1="4" x2="8" y2="14" gradientUnits="userSpaceOnUse">
<stop stop-color="#647EEA"/>
<stop offset="0.59" stop-color="#4A6CF7"/>
<stop offset="1" stop-color="#4A6CF7"/>
</linearGradient>
</defs>
</svg>
